<?xml version="1.0" encoding="UTF-8" standalone="no"?>
<!-- Generator: Adobe Illustrator 18.1.0, SVG Export Plug-In . SVG Version: 6.00 Build 0)  -->

<svg
   xmlns:dc="http://purl.org/dc/elements/1.1/"
   xmlns:cc="http://creativecommons.org/ns#"
   xmlns:rdf="http://www.w3.org/1999/02/22-rdf-syntax-ns#"
   xmlns:svg="http://www.w3.org/2000/svg"
   xmlns="http://www.w3.org/2000/svg"
   xmlns:sodipodi="http://sodipodi.sourceforge.net/DTD/sodipodi-0.dtd"
   xmlns:inkscape="http://www.inkscape.org/namespaces/inkscape"
   version="1.1"
   id="Chat"
   x="0px"
   y="0px"
   viewBox="0 0 20 20"
   style="enable-background:new 0 0 20 20;"
   xml:space="preserve"
   inkscape:version="0.48.4 r9939"
   width="100%"
   height="100%"
   sodipodi:docname="chat.svg"><metadata
   id="metadata9"><rdf:RDF><cc:Work
       rdf:about=""><dc:format>image/svg+xml</dc:format><dc:type
         rdf:resource="http://purl.org/dc/dcmitype/StillImage" /></cc:Work></rdf:RDF></metadata><defs
   id="defs7" /><sodipodi:namedview
   pagecolor="#ffffff"
   bordercolor="#666666"
   borderopacity="1"
   objecttolerance="10"
   gridtolerance="10"
   guidetolerance="10"
   inkscape:pageopacity="0"
   inkscape:pageshadow="2"
   inkscape:window-width="640"
   inkscape:window-height="480"
   id="namedview5"
   showgrid="false"
   inkscape:zoom="11.8"
   inkscape:cx="10"
   inkscape:cy="10"
   inkscape:window-x="637"
   inkscape:window-y="200"
   inkscape:window-maximized="0"
   inkscape:current-layer="Chat" />
<path
   d="M5.8,12.2V6H2C0.9,6,0,6.9,0,8v6c0,1.1,0.9,2,2,2h1v3l3-3h5c1.1,0,2-0.9,2-2v-1.82c-0.064,0.014-0.132,0.021-0.2,0.021h-7  V12.2z M18,1H9C7.9,1,7,1.9,7,3v8h7l3,3v-3h1c1.1,0,2-0.899,2-2V3C20,1.9,19.1,1,18,1z"
   id="path3"
   style="fill:#b3b3b3" />
</svg>