<?xml version="1.0" encoding="UTF-8" standalone="no"?>
<!-- Generator: Adobe Illustrator 18.1.0, SVG Export Plug-In . SVG Version: 6.00 Build 0)  -->

<svg
   xmlns:dc="http://purl.org/dc/elements/1.1/"
   xmlns:cc="http://creativecommons.org/ns#"
   xmlns:rdf="http://www.w3.org/1999/02/22-rdf-syntax-ns#"
   xmlns:svg="http://www.w3.org/2000/svg"
   xmlns="http://www.w3.org/2000/svg"
   xmlns:sodipodi="http://sodipodi.sourceforge.net/DTD/sodipodi-0.dtd"
   xmlns:inkscape="http://www.inkscape.org/namespaces/inkscape"
   version="1.1"
   id="Magnifying_glass"
   x="0px"
   y="0px"
   viewBox="0 0 20 20"
   enable-background="new 0 0 20 20"
   xml:space="preserve"
   inkscape:version="0.48.4 r9939"
   width="100%"
   height="100%"
   sodipodi:docname="magnifying-glass.svg"><metadata
   id="metadata9"><rdf:RDF><cc:Work
       rdf:about=""><dc:format>image/svg+xml</dc:format><dc:type
         rdf:resource="http://purl.org/dc/dcmitype/StillImage" /></cc:Work></rdf:RDF></metadata><defs
   id="defs7" /><sodipodi:namedview
   pagecolor="#ffffff"
   bordercolor="#666666"
   borderopacity="1"
   objecttolerance="10"
   gridtolerance="10"
   guidetolerance="10"
   inkscape:pageopacity="0"
   inkscape:pageshadow="2"
   inkscape:window-width="739"
   inkscape:window-height="480"
   id="namedview5"
   showgrid="false"
   inkscape:zoom="11.8"
   inkscape:cx="10"
   inkscape:cy="10"
   inkscape:window-x="699"
   inkscape:window-y="210"
   inkscape:window-maximized="0"
   inkscape:current-layer="Magnifying_glass" />
<path
   d="M17.545,15.467l-3.779-3.779c0.57-0.935,0.898-2.035,0.898-3.21c0-3.417-2.961-6.377-6.378-6.377  C4.869,2.1,2.1,4.87,2.1,8.287c0,3.416,2.961,6.377,6.377,6.377c1.137,0,2.2-0.309,3.115-0.844l3.799,3.801  c0.372,0.371,0.975,0.371,1.346,0l0.943-0.943C18.051,16.307,17.916,15.838,17.545,15.467z M4.004,8.287  c0-2.366,1.917-4.283,4.282-4.283c2.366,0,4.474,2.107,4.474,4.474c0,2.365-1.918,4.283-4.283,4.283  C6.111,12.76,4.004,10.652,4.004,8.287z"
   id="path3"
   style="fill:#cccccc" />
</svg>