<?xml version="1.0" encoding="UTF-8" standalone="no"?>
<!-- Created with Inkscape (http://www.inkscape.org/) -->

<svg
   xmlns:dc="http://purl.org/dc/elements/1.1/"
   xmlns:cc="http://creativecommons.org/ns#"
   xmlns:rdf="http://www.w3.org/1999/02/22-rdf-syntax-ns#"
   xmlns:svg="http://www.w3.org/2000/svg"
   xmlns="http://www.w3.org/2000/svg"
   xmlns:sodipodi="http://sodipodi.sourceforge.net/DTD/sodipodi-0.dtd"
   xmlns:inkscape="http://www.inkscape.org/namespaces/inkscape"
   width="471.21265"
   height="471.20633"
   id="svg2"
   version="1.1"
   inkscape:version="0.48.4 r9939"
   sodipodi:docname="рисунок.svg">
  <defs
     id="defs4">
    <clipPath
       clipPathUnits="userSpaceOnUse"
       id="clipPath3839">
      <path
         style="opacity:0.39688715;fill:#000000;fill-opacity:1;stroke:none"
         d="m 337.597,642.46067 -16.01273,75.51613 -91.21651,16.90388 22.36556,104.5577 89.51133,-16.62849 80.38689,-130.32726 16.0905,-0.0893 1.60127,-18.82134 z"
         id="path3841"
         inkscape:connector-curvature="0"
         sodipodi:nodetypes="ccccccccc" />
    </clipPath>
    <clipPath
       clipPathUnits="userSpaceOnUse"
       id="clipPath3848">
      <path
         style="opacity:0.32295718;fill:#000000;fill-opacity:1;stroke:none"
         d="m 231.69637,734.82732 92.13605,-16.73529 14.16062,-78.52712 c 0,0 103.72201,21.88461 103.72201,23.72365 0,1.83904 -2.39076,28.68905 -2.39076,28.68905 l -14.52844,0.36782 -113.65284,136.27306 -33.65447,4.5976 92.87165,55.723 L 513.80551,796.61915 464.51918,639.1971 303.41904,620.80668 z"
         id="path3850"
         inkscape:connector-curvature="0"
         sodipodi:nodetypes="cccsccccccccc" />
    </clipPath>
    <clipPath
       clipPathUnits="userSpaceOnUse"
       id="clipPath3877">
      <path
         style="opacity:0.20233465;fill:#000000;fill-opacity:1;stroke:none"
         d="m 355,858.36218 1.5,99 -123,-61.5 39.25,-38.25 58.25,0.75 -25.75,-102.25 c -15.3789,-1.80512 -23.73121,-7.38862 -33.75,-14.75 0.37067,-50.3098 -10.32068,-101.89598 39.5,-146.5 0,0 66.2092,17.01649 80,37.5 9.73143,14.45412 10,24 10,24 z"
         id="path3879"
         inkscape:connector-curvature="0"
         sodipodi:nodetypes="ccccccccscc" />
    </clipPath>
    <clipPath
       clipPathUnits="userSpaceOnUse"
       id="clipPath3881">
      <path
         style="opacity:0.20233465;fill:#000000;fill-opacity:1;stroke:none"
         d="m 355,858.36218 1.5,99 -123,-61.5 39.25,-38.25 58.25,0.75 -25.75,-102.25 c -15.3789,-1.80512 -23.73121,-7.38862 -33.75,-14.75 0.37067,-50.3098 -10.32068,-101.89598 39.5,-146.5 0,0 66.2092,17.01649 80,37.5 9.73143,14.45412 10,24 10,24 z"
         id="path3883"
         inkscape:connector-curvature="0"
         sodipodi:nodetypes="ccccccccscc" />
    </clipPath>
    <clipPath
       clipPathUnits="userSpaceOnUse"
       id="clipPath3885">
      <path
         style="opacity:0.20233465;fill:#000000;fill-opacity:1;stroke:none"
         d="m 355,858.36218 1.5,99 -123,-61.5 39.25,-38.25 58.25,0.75 -25.75,-102.25 c -15.3789,-1.80512 -23.73121,-7.38862 -33.75,-14.75 0.37067,-50.3098 -10.32068,-101.89598 39.5,-146.5 0,0 66.2092,17.01649 80,37.5 9.73143,14.45412 10,24 10,24 z"
         id="path3887"
         inkscape:connector-curvature="0"
         sodipodi:nodetypes="ccccccccscc" />
    </clipPath>
    <clipPath
       clipPathUnits="userSpaceOnUse"
       id="clipPath3893">
      <path
         style="opacity:0.22178991;fill:#000000;fill-opacity:1;stroke:none"
         d="m 508.05622,637.82083 -0.53033,48.08327 23.68808,-27.22362 19.26866,-31.28947 -41.0122,-1.76777 z"
         id="path3895"
         inkscape:connector-curvature="0"
         sodipodi:nodetypes="cccccc" />
    </clipPath>
  </defs>
  <sodipodi:namedview
     id="base"
     pagecolor="#ffffff"
     bordercolor="#666666"
     borderopacity="1.0"
     inkscape:pageopacity="0.0"
     inkscape:pageshadow="2"
     inkscape:zoom="1.4142136"
     inkscape:cx="349.70719"
     inkscape:cy="221.65217"
     inkscape:document-units="px"
     inkscape:current-layer="layer4"
     showgrid="false"
     inkscape:object-paths="true"
     inkscape:snap-intersection-paths="true"
     inkscape:object-nodes="true"
     inkscape:snap-smooth-nodes="true"
     inkscape:snap-midpoints="true"
     inkscape:snap-object-midpoints="false"
     inkscape:snap-center="false"
     inkscape:snap-nodes="false"
     inkscape:snap-grids="false"
     inkscape:snap-to-guides="false"
     inkscape:window-width="1920"
     inkscape:window-height="1017"
     inkscape:window-x="-8"
     inkscape:window-y="-8"
     inkscape:window-maximized="1"
     fit-margin-top="0"
     fit-margin-left="0"
     fit-margin-right="0"
     fit-margin-bottom="0" />
  <metadata
     id="metadata7">
    <rdf:RDF>
      <cc:Work
         rdf:about="">
        <dc:format>image/svg+xml</dc:format>
        <dc:type
           rdf:resource="http://purl.org/dc/dcmitype/StillImage" />
        <dc:title></dc:title>
      </cc:Work>
    </rdf:RDF>
  </metadata>
  <g
     inkscape:groupmode="layer"
     id="layer4"
     inkscape:label="Слой1"
     style="display:inline"
     transform="translate(-140.82276,-490.8009)"
     sodipodi:insensitive="true">
    <path
       transform="matrix(0.96124305,0,0,0.96124305,79.92517,55.393648)"
       d="m 464.1651,759.41797 a 100.0051,100.0051 0 1 1 -200.01019,0 100.0051,100.0051 0 1 1 200.01019,0 z"
       sodipodi:ry="100.0051"
       sodipodi:rx="100.0051"
       sodipodi:cy="759.41797"
       sodipodi:cx="364.16"
       id="path3843"
       style="fill:none;stroke:#2c3e50;stroke-width:7.98029184;stroke-miterlimit:4;stroke-opacity:1;stroke-dasharray:none;display:inline"
       sodipodi:type="arc"
       clip-path="url(#clipPath3848)" />
    <path
       style="fill:#808080;fill-opacity:0.00784314;stroke:#2c3e50;stroke-width:15.39999962;stroke-linecap:butt;stroke-linejoin:miter;stroke-miterlimit:4;stroke-opacity:1;stroke-dasharray:none;display:inline"
       d="m 523.58561,636.31554 c 23.26312,13.86073 44.9637,38.03958 51.9301,50.14637 l -25.58376,24.91341 c 7.73099,12.41468 12.16696,22.34033 15.55307,37.86646 l 41.87249,0.13269"
       id="path3852"
       inkscape:connector-curvature="0"
       sodipodi:nodetypes="ccccc" />
    <path
       sodipodi:nodetypes="ccccc"
       inkscape:connector-curvature="0"
       id="path3854"
       d="m 599.67209,743.16241 c 6.66115,26.24733 4.9244,58.68981 1.29612,72.17836 l -35.17692,-0.10298 c -3.30501,14.24673 -7.1819,24.40382 -15.75973,37.78094 l 29.52881,29.68788"
       style="fill:#808080;fill-opacity:0.00784314;stroke:#2c3e50;stroke-width:15.39999962;stroke-linecap:butt;stroke-linejoin:miter;stroke-miterlimit:4;stroke-opacity:1;stroke-dasharray:none;display:inline" />
    <path
       style="fill:#808080;fill-opacity:0.00784314;stroke:#2c3e50;stroke-width:15.39999962;stroke-linecap:butt;stroke-linejoin:miter;stroke-miterlimit:4;stroke-opacity:1;stroke-dasharray:none;display:inline"
       d="m 578.44501,873.31104 c -13.71683,23.34826 -38.3792,44.40167 -50.44276,51.44271 l -24.9426,-24.8051 c -12.36673,7.80752 -22.26478,12.30468 -37.76974,15.78662 l 0.12589,41.87247"
       id="path3856"
       inkscape:connector-curvature="0"
       sodipodi:nodetypes="ccccc" />
    <path
       sodipodi:nodetypes="ccccc"
       inkscape:connector-curvature="0"
       id="path3858"
       d="m 471.08851,949.98976 c -26.3055,6.42751 -58.73125,4.40238 -72.18701,0.65435 l 0.41576,-35.17461 c -14.21681,-3.43156 -24.33899,-7.3986 -37.63935,-16.09502 L 331.981,928.89096"
       style="fill:#808080;fill-opacity:0.00784314;stroke:#2c3e50;stroke-width:15.39999962;stroke-linecap:butt;stroke-linejoin:miter;stroke-miterlimit:4;stroke-opacity:1;stroke-dasharray:none;display:inline" />
    <path
       sodipodi:nodetypes="ccccc"
       inkscape:connector-curvature="0"
       id="path3866"
       d="m 263.61595,820.94487 c -6.5883,-26.26568 -4.7615,-58.70327 -1.09582,-72.18166 l 35.17652,0.20065 c 3.34451,-14.2375 7.24958,-24.3838 15.86453,-37.73703 L 284.11483,681.4571"
       style="fill:#000000;fill-opacity:0;stroke:#2c3e50;stroke-width:15.39999962;stroke-linecap:butt;stroke-linejoin:miter;stroke-miterlimit:4;stroke-opacity:1;stroke-dasharray:none;display:inline"
       clip-path="url(#clipPath3885)"
       transform="translate(0.5,0)" />
    <path
       style="fill:#000000;fill-opacity:0;stroke:#2c3e50;stroke-width:15.39999962;stroke-linecap:butt;stroke-linejoin:miter;stroke-miterlimit:4;stroke-opacity:1;stroke-dasharray:none;display:inline"
       d="m 285.36072,690.87199 c 14.07479,-23.13425 38.45287,-44.61078 50.62343,-51.46519 l 24.55757,25.18636 c 12.48549,-7.6161 22.45166,-11.9603 38.00839,-15.20297 l 0.51905,-41.8695"
       id="path3868"
       inkscape:connector-curvature="0"
       sodipodi:nodetypes="ccccc"
       clip-path="url(#clipPath3881)"
       transform="translate(0.5,0)" />
    <path
       sodipodi:nodetypes="ccccc"
       inkscape:connector-curvature="0"
       id="path3870"
       d="M 340.54739,928.26556 C 317.3538,914.28877 295.77432,890.0018 288.86848,877.86035 l 25.08218,-24.66394 c -7.66887,-12.45319 -12.05518,-22.40086 -15.36369,-37.94374 l -41.87131,-0.34187"
       style="fill:#000000;fill-opacity:0;stroke:#2c3e50;stroke-width:15.39999962;stroke-linecap:butt;stroke-linejoin:miter;stroke-miterlimit:4;stroke-opacity:1;stroke-dasharray:none;display:inline"
       clip-path="url(#clipPath3877)" />
    <path
       sodipodi:nodetypes="cc"
       inkscape:connector-curvature="0"
       id="path3889"
       d="m 501.1383,666.15673 c 8.1091,-6.54398 22.67204,-21.33815 31.61944,-31.68711"
       style="fill:#808080;fill-opacity:0.00784314;stroke:#2c3e50;stroke-width:15.39999962;stroke-linecap:butt;stroke-linejoin:miter;stroke-miterlimit:4;stroke-opacity:1;stroke-dasharray:none;display:inline"
       clip-path="url(#clipPath3893)" />
  </g>
  <g
     inkscape:groupmode="layer"
     id="layer3"
     inkscape:label="Слой2"
     style="display:inline"
     transform="translate(-140.82276,-490.8009)"
     sodipodi:insensitive="true">
    <path
       style="fill:#808080;fill-opacity:0.00784314;stroke:#3b97d3;stroke-width:15.39999962;stroke-linecap:butt;stroke-linejoin:miter;stroke-miterlimit:4;stroke-opacity:1;stroke-dasharray:none;display:inline"
       d="m 174.32904,579.60965 c 13.87916,-23.25212 38.07524,-44.93352 50.18754,-51.89032 l 24.76914,24.97833 c 12.4208,-7.72115 22.34998,-12.14925 37.8788,-15.52302 l 0.16588,-41.87238"
       id="path3814"
       inkscape:connector-curvature="0"
       sodipodi:nodetypes="ccccc" />
    <path
       sodipodi:nodetypes="ccccc"
       inkscape:connector-curvature="0"
       id="path3818"
       d="m 281.56535,502.84922 c 26.30113,-6.44544 58.72828,-4.44236 72.18658,-0.70345 l -0.39188,35.1749 c 14.21912,3.42186 24.34403,7.38202 37.65025,16.06942 L 420.93965,524.106"
       style="fill:#808080;fill-opacity:0.00784314;stroke:#3b97d3;stroke-width:15.39999962;stroke-linecap:butt;stroke-linejoin:miter;stroke-miterlimit:4;stroke-opacity:1;stroke-dasharray:none;display:inline" />
    <path
       style="fill:#808080;fill-opacity:0.00784314;stroke:#3b97d3;stroke-width:15.39999962;stroke-linecap:butt;stroke-linejoin:miter;stroke-miterlimit:4;stroke-opacity:1;stroke-dasharray:none;display:inline"
       d="m 411.35575,525.03927 c 23.23897,13.9012 44.89742,38.11779 51.84277,50.23667 l -25.0018,24.74547 c 7.70938,12.42813 12.12807,22.36149 15.48715,37.8935 l 41.87219,0.20553"
       id="path3820"
       inkscape:connector-curvature="0"
       sodipodi:nodetypes="ccccc" />
    <path
       sodipodi:type="arc"
       style="fill:none;stroke:#3b96d2;stroke-width:7.98029184;stroke-miterlimit:4;stroke-opacity:1;stroke-dasharray:none;display:inline"
       id="path3016"
       sodipodi:cx="364.16"
       sodipodi:cy="759.41797"
       sodipodi:rx="100.0051"
       sodipodi:ry="100.0051"
       d="m 464.1651,759.41797 a 100.0051,100.0051 0 1 1 -200.01019,0 100.0051,100.0051 0 1 1 200.01019,0 z"
       transform="matrix(0.96124305,0,0,0.96124305,-31.090594,-56.682776)" />
    <path
       sodipodi:nodetypes="ccccc"
       inkscape:connector-curvature="0"
       id="path3823"
       d="m 488.11196,632.29366 c 6.67237,26.24447 4.94946,58.6877 1.32695,72.1778 l -35.70731,-0.44155 c -3.29892,14.24815 -7.17147,24.40688 -15.7436,37.78766 l 29.54152,29.67526"
       style="fill:#808080;fill-opacity:0.00784314;stroke:#3b97d3;stroke-width:15.39999962;stroke-linecap:butt;stroke-linejoin:miter;stroke-miterlimit:4;stroke-opacity:1;stroke-dasharray:none;display:inline" />
    <path
       style="fill:#808080;fill-opacity:0.00784314;stroke:#3b97d3;stroke-width:15.39999962;stroke-linecap:butt;stroke-linejoin:miter;stroke-miterlimit:4;stroke-opacity:1;stroke-dasharray:none;display:inline"
       d="m 466.47873,761.6668 c -13.82833,23.28239 -37.97695,45.0166 -50.07403,51.99987 l -24.82368,-24.92412 c -12.40391,7.74826 -22.32338,12.19805 -37.84479,15.60578 l -0.0744,41.87262"
       id="path3825"
       inkscape:connector-curvature="0"
       sodipodi:nodetypes="ccccc" />
    <path
       sodipodi:nodetypes="ccccc"
       inkscape:connector-curvature="0"
       id="path3827"
       d="m 359.51004,838.78329 c -26.20277,6.83429 -58.53102,4.31176 -72.04323,0.7726 l -0.12923,-35.17683 c -14.26826,-3.21088 -24.45069,-7.02063 -37.88417,-15.50997 l -29.49228,29.72418"
       style="fill:#808080;fill-opacity:0.00784314;stroke:#3b97d3;stroke-width:15.39999962;stroke-linecap:butt;stroke-linejoin:miter;stroke-miterlimit:4;stroke-opacity:1;stroke-dasharray:none;display:inline" />
    <path
       style="fill:#808080;fill-opacity:0.00784314;stroke:#3b97d3;stroke-width:15.39999962;stroke-linecap:butt;stroke-linejoin:miter;stroke-miterlimit:4;stroke-opacity:1;stroke-dasharray:none;display:inline"
       d="m 229.35783,817.2092 c -23.15852,-14.03481 -44.67716,-38.3757 -51.5526,-50.53439 l 25.14383,-24.6011 c -7.63768,-12.47233 -11.99908,-22.43096 -15.26869,-37.98206 l -41.87029,-0.0895"
       id="path3829"
       inkscape:connector-curvature="0"
       sodipodi:nodetypes="ccccc" />
    <path
       style="fill:#808080;fill-opacity:0.00784314;stroke:#3b97d3;stroke-width:15.39999962;stroke-linecap:butt;stroke-linejoin:miter;stroke-miterlimit:4;stroke-opacity:1;stroke-dasharray:none;display:inline"
       d="m 153.03597,709.92765 c -6.55666,-26.27362 -4.69082,-58.70894 -1.00888,-72.18295 l 35.17623,0.24299 c 3.36167,-14.23349 7.27895,-24.37503 15.90996,-37.71794 l -29.41046,-29.80514"
       id="path3831"
       inkscape:connector-curvature="0"
       sodipodi:nodetypes="ccccc" />
  </g>
</svg>
