<?xml version="1.0" encoding="UTF-8" standalone="no"?>
<!-- Generator: Adobe Illustrator 18.1.0, SVG Export Plug-In . SVG Version: 6.00 Build 0)  -->

<svg
   xmlns:dc="http://purl.org/dc/elements/1.1/"
   xmlns:cc="http://creativecommons.org/ns#"
   xmlns:rdf="http://www.w3.org/1999/02/22-rdf-syntax-ns#"
   xmlns:svg="http://www.w3.org/2000/svg"
   xmlns="http://www.w3.org/2000/svg"
   xmlns:sodipodi="http://sodipodi.sourceforge.net/DTD/sodipodi-0.dtd"
   xmlns:inkscape="http://www.inkscape.org/namespaces/inkscape"
   version="1.1"
   id="Share"
   x="0px"
   y="0px"
   viewBox="0 0 20 20"
   style="enable-background:new 0 0 20 20;"
   xml:space="preserve"
   inkscape:version="0.48.4 r9939"
   width="100%"
   height="100%"
   sodipodi:docname="share.svg"><metadata
   id="metadata9"><rdf:RDF><cc:Work
       rdf:about=""><dc:format>image/svg+xml</dc:format><dc:type
         rdf:resource="http://purl.org/dc/dcmitype/StillImage" /></cc:Work></rdf:RDF></metadata><defs
   id="defs7" /><sodipodi:namedview
   pagecolor="#ffffff"
   bordercolor="#666666"
   borderopacity="1"
   objecttolerance="10"
   gridtolerance="10"
   guidetolerance="10"
   inkscape:pageopacity="0"
   inkscape:pageshadow="2"
   inkscape:window-width="640"
   inkscape:window-height="480"
   id="namedview5"
   showgrid="false"
   inkscape:zoom="11.8"
   inkscape:cx="10"
   inkscape:cy="10"
   inkscape:window-x="0"
   inkscape:window-y="0"
   inkscape:window-maximized="0"
   inkscape:current-layer="Share" />
<path
   d="M15,13.442c-0.633,0-1.204,0.246-1.637,0.642l-5.938-3.463C7.471,10.433,7.5,10.237,7.5,10.037S7.471,9.642,7.425,9.454  L13.3,6.025C13.746,6.442,14.342,6.7,15,6.7c1.379,0,2.5-1.121,2.5-2.5S16.379,1.7,15,1.7s-2.5,1.121-2.5,2.5  c0,0.2,0.029,0.396,0.075,0.583L6.7,8.212C6.254,7.796,5.658,7.537,5,7.537c-1.379,0-2.5,1.121-2.5,2.5s1.121,2.5,2.5,2.5  c0.658,0,1.254-0.258,1.7-0.675l5.938,3.463c-0.042,0.175-0.067,0.358-0.067,0.546c0,1.342,1.087,2.429,2.429,2.429  s2.429-1.088,2.429-2.429S16.342,13.442,15,13.442z"
   id="path3"
   style="fill:#ffffff" />
</svg>