<?xml version="1.0" encoding="UTF-8" standalone="no"?>
<!-- Generator: Adobe Illustrator 18.1.1, SVG Export Plug-In . SVG Version: 6.00 Build 0)  -->

<svg
   xmlns:dc="http://purl.org/dc/elements/1.1/"
   xmlns:cc="http://creativecommons.org/ns#"
   xmlns:rdf="http://www.w3.org/1999/02/22-rdf-syntax-ns#"
   xmlns:svg="http://www.w3.org/2000/svg"
   xmlns="http://www.w3.org/2000/svg"
   xmlns:sodipodi="http://sodipodi.sourceforge.net/DTD/sodipodi-0.dtd"
   xmlns:inkscape="http://www.inkscape.org/namespaces/inkscape"
   version="1.1"
   id="Twitter"
   x="0px"
   y="0px"
   viewBox="0 0 20 20"
   enable-background="new 0 0 20 20"
   xml:space="preserve"
   inkscape:version="0.48.4 r9939"
   width="100%"
   height="100%"
   sodipodi:docname="twitter.svg"><metadata
   id="metadata9"><rdf:RDF><cc:Work
       rdf:about=""><dc:format>image/svg+xml</dc:format><dc:type
         rdf:resource="http://purl.org/dc/dcmitype/StillImage" /></cc:Work></rdf:RDF></metadata><defs
   id="defs7" /><sodipodi:namedview
   pagecolor="#ffffff"
   bordercolor="#666666"
   borderopacity="1"
   objecttolerance="10"
   gridtolerance="10"
   guidetolerance="10"
   inkscape:pageopacity="0"
   inkscape:pageshadow="2"
   inkscape:window-width="640"
   inkscape:window-height="480"
   id="namedview5"
   showgrid="false"
   inkscape:zoom="11.8"
   inkscape:cx="10"
   inkscape:cy="10"
   inkscape:window-x="0"
   inkscape:window-y="0"
   inkscape:window-maximized="0"
   inkscape:current-layer="Twitter" />
<path
   d="M17.316,6.246c0.008,0.162,0.011,0.326,0.011,0.488c0,4.99-3.797,10.742-10.74,10.742c-2.133,0-4.116-0.625-5.787-1.697  c0.296,0.035,0.596,0.053,0.9,0.053c1.77,0,3.397-0.604,4.688-1.615c-1.651-0.031-3.046-1.121-3.526-2.621  c0.23,0.043,0.467,0.066,0.71,0.066c0.345,0,0.679-0.045,0.995-0.131c-1.727-0.348-3.028-1.873-3.028-3.703c0-0.016,0-0.031,0-0.047  c0.509,0.283,1.092,0.453,1.71,0.473c-1.013-0.678-1.68-1.832-1.68-3.143c0-0.691,0.186-1.34,0.512-1.898  C3.942,5.498,6.725,7,9.862,7.158C9.798,6.881,9.765,6.594,9.765,6.297c0-2.084,1.689-3.773,3.774-3.773  c1.086,0,2.067,0.457,2.756,1.191c0.859-0.17,1.667-0.484,2.397-0.916c-0.282,0.881-0.881,1.621-1.66,2.088  c0.764-0.092,1.49-0.293,2.168-0.594C18.694,5.051,18.054,5.715,17.316,6.246z"
   id="path3"
   style="fill:#ffffff" />
</svg>